<?xml version="1.0" encoding="UTF-8"?> <svg xmlns="http://www.w3.org/2000/svg" width="773" height="528" viewBox="0 0 773 528" fill="none"><path d="M236.59 319.123C147.59 379.623 105.907 495.561 138.504 507.715C158.048 530.96 202.287 492.483 109.591 406.921C-89.7704 222.832 31.5912 88.123 109.591 86.123" stroke="#66BB6A" stroke-miterlimit="10" stroke-dasharray="6 6"></path><path d="M120.984 407.742C213.68 493.305 163.049 522.96 143.504 499.715C110.908 487.561 213.531 270.89 330.092 286.123C522.032 311.241 523.636 562.175 654.458 522.96C786.153 483.582 819.503 312.773 691.592 218.623C564.117 124.958 724.585 -13.2332 740.592 38.6226C749.76 68.1156 676.592 140.623 592.994 85.9123C521.253 16.8792 427.792 -46.94 355.592 51.8334C295.929 177.098 189.092 98.123 111.592 88.6227C33.7389 71.4454 -78.3777 223.654 120.984 407.742Z" stroke="white" stroke-miterlimit="10" stroke-dasharray="6 6"></path><path d="M147.591 479.167C147.591 479.298 278.386 479.56 439.717 479.56C601.049 479.56 731.844 479.429 731.844 479.167C731.844 478.905 601.049 478.773 439.717 478.773C278.386 478.773 147.591 478.905 147.591 479.167Z" fill="#263238"></path><path d="M573.528 252.039L539.322 367.702C537.749 372.816 533.031 376.357 527.789 376.357L388.868 376.75C381.529 376.75 375.631 370.587 376.025 363.243C376.418 356.424 382.053 351.047 388.868 351.047H441.946L484.54 232.5H558.85C569.072 232.5 576.411 242.335 573.528 252.039Z" fill="#EA6F57"></path><path d="M487.554 361.145C470.11 361.145 455.969 360.91 455.969 360.62C455.969 360.331 470.11 360.096 487.554 360.096C504.998 360.096 519.139 360.331 519.139 360.62C519.139 360.91 504.998 361.145 487.554 361.145Z" fill="#EA6F57"></path><path d="M563.305 236.172C563.043 236.041 553.607 263.711 542.205 298.069C530.803 332.295 521.76 360.096 522.022 360.227C522.284 360.358 531.72 332.689 543.122 298.331C554.524 264.104 563.567 236.172 563.305 236.172Z" fill="#EA6F57"></path><path d="M461.735 479.167L470.254 478.905V376.356H461.735V479.167Z" fill="#475056"></path><path d="M505.379 478.643H426.614L462.261 466.316H470.78L505.379 478.643Z" fill="#475056"></path><path d="M525.299 205.879L512.324 271.053L514.683 319.967L427.006 305.411L430.413 262.661L430.544 227.254L409.051 268.955L392.276 236.565L422.943 181.094C428.579 175.324 435.131 170.996 442.995 168.111C446.796 166.669 450.858 165.882 455.576 165.751C465.668 168.898 475.759 168.898 485.982 165.751C487.161 165.882 488.865 166.013 491.093 166.276C491.224 166.276 491.355 166.276 491.486 166.276C510.096 168.505 524.25 183.979 525.299 202.731V205.879Z" fill="#FFD24F"></path><path d="M490.961 166.275C490.961 166.275 527.002 166.538 531.458 204.567L532.113 232.499L501.053 232.237L490.961 166.275Z" fill="#FFD24F"></path><path d="M404.856 215.19C404.856 215.452 433.164 215.714 468.156 215.714C503.149 215.714 531.457 215.452 531.457 215.19C531.457 214.927 503.149 214.665 468.156 214.665C433.164 214.665 404.856 214.927 404.856 215.19Z" fill="#FAFAFA"></path><path d="M404.856 221.222C404.856 221.484 433.164 221.746 468.156 221.746C503.149 221.746 531.457 221.484 531.457 221.222C531.457 220.96 503.149 220.697 468.156 220.697C433.164 220.697 404.856 220.96 404.856 221.222Z" fill="#FAFAFA"></path><path d="M406.953 210.207C406.953 210.469 434.868 210.732 469.205 210.732C503.542 210.732 531.457 210.469 531.457 210.207C531.457 209.945 503.542 209.683 469.205 209.683C434.737 209.683 406.953 209.945 406.953 210.207Z" fill="#FAFAFA"></path><path d="M429.619 234.438C429.2 215.394 429.095 199.95 429.385 199.944C429.674 199.938 430.248 215.371 430.667 234.415C431.086 253.458 431.191 268.902 430.902 268.908C430.612 268.914 430.038 253.481 429.619 234.438Z" fill="#263238"></path><path d="M443.257 243.908C443.257 243.908 426.22 245.088 423.205 249.678C420.191 254.137 415.473 266.988 417.177 267.119C419.012 267.25 420.191 266.201 420.191 266.201L424.909 257.94C424.909 257.94 424.123 265.939 427.006 266.07C429.758 266.201 443.65 268.955 443.65 268.955L443.257 243.908Z" fill="#FFBE9D"></path><path d="M531.982 225.025V268.956C531.458 279.185 521.76 286.528 511.8 284.43L443.126 270.267L443.257 242.073L502.495 253.482L503.281 223.714L531.982 225.025Z" fill="#FFD24F"></path><path d="M492.795 280.889C492.795 280.889 492.533 280.758 491.878 280.627C491.222 280.496 490.305 280.234 489.257 279.971C486.898 279.447 483.49 278.791 479.165 277.873C470.384 276.037 458.065 273.546 443.387 270.53L443.78 270.923C443.78 262.137 443.78 252.302 443.78 241.942L443.255 242.466C447.187 243.253 451.25 244.04 455.313 244.827C472.612 248.105 488.863 251.253 502.493 253.875L503.018 254.006V253.482C502.624 240.368 502.231 229.484 501.969 221.747C501.838 217.944 501.707 215.059 501.576 212.961C501.576 212.043 501.445 211.256 501.445 210.6C501.445 210.076 501.314 209.813 501.314 209.813C501.314 209.813 501.314 210.076 501.314 210.6C501.314 211.256 501.314 211.912 501.314 212.961C501.314 215.059 501.445 218.075 501.445 221.878C501.576 229.615 501.838 240.499 502.231 253.613L502.755 253.22C489.126 250.597 472.874 247.45 455.575 244.04C451.381 243.253 447.318 242.466 443.518 241.68L442.993 241.548V242.073C442.993 252.433 442.993 262.137 442.993 271.054V271.448L443.387 271.579C458.065 274.464 470.384 276.824 479.165 278.529C483.49 279.316 486.898 279.971 489.257 280.365C490.436 280.496 491.222 280.758 492.009 280.889C492.533 280.889 492.795 280.889 492.795 280.889Z" fill="#263238"></path><path d="M453.348 166.276C453.348 166.276 453.217 166.538 453.086 166.932C452.955 167.325 452.693 167.981 452.562 168.899C452.169 170.604 452.038 173.226 452.824 176.242C453.611 179.258 455.707 182.668 458.722 185.422C461.867 188.307 466.323 190.143 471.172 190.143C476.021 190.143 480.608 188.176 483.492 185.16C486.375 182.144 487.685 178.341 488.079 175.193C488.472 172.046 487.816 169.423 487.161 167.85C486.899 167.063 486.506 166.407 486.244 166.014C485.982 165.62 485.851 165.358 485.851 165.489C485.72 165.489 486.244 166.407 486.768 167.981C487.292 169.554 487.685 172.046 487.292 175.062C486.899 178.078 485.588 181.619 482.705 184.504C479.953 187.389 475.628 189.225 471.041 189.225C466.454 189.225 462.129 187.52 459.115 184.766C456.101 182.143 454.135 178.996 453.217 175.98C452.3 173.095 452.431 170.472 452.562 168.899C453.217 167.194 453.479 166.276 453.348 166.276Z" fill="#263238"></path><path d="M450.072 272.497C450.203 272.497 450.203 270.792 450.072 268.169C449.941 265.546 449.81 261.875 449.81 257.809C449.81 253.744 449.809 250.072 449.941 247.45C450.072 244.827 450.072 243.122 449.941 243.122C449.809 243.122 449.547 244.696 449.285 247.45C449.023 250.072 448.892 253.875 448.892 257.94C448.892 262.006 449.154 265.678 449.416 268.431C449.678 270.923 449.941 272.628 450.072 272.497Z" fill="#FAFAFA"></path><path d="M453.609 273.283C453.74 273.283 453.74 271.578 453.74 268.955C453.74 265.939 453.609 262.398 453.609 258.595C453.609 254.793 453.609 251.252 453.609 248.236C453.609 245.613 453.609 243.908 453.478 243.908C453.347 243.908 453.085 245.482 452.954 248.236C452.823 250.858 452.692 254.53 452.692 258.595C452.692 262.661 452.823 266.333 453.085 268.955C453.216 271.709 453.478 273.283 453.609 273.283Z" fill="#FAFAFA"></path><path d="M384.805 447.826L371.83 483.626L353.351 508.936C352.04 510.772 352.565 513.394 354.4 514.575C355.448 515.23 356.759 515.361 357.938 514.837C365.408 511.69 392.668 500.281 393.455 497.658C394.372 494.511 411.934 456.088 411.934 456.088L384.805 447.826Z" fill="#72A065"></path><g opacity="0.6"><g opacity="0.6"><path opacity="0.6" d="M354.531 514.575L394.504 495.298L393.98 496.74C393.455 498.052 392.538 499.101 391.359 499.756C388.082 501.461 378.908 506.182 358.332 514.837C357.022 515.362 355.58 515.231 354.531 514.575Z" fill="white"></path></g></g><g opacity="0.6"><g opacity="0.6"><g opacity="0.6"><path opacity="0.6" d="M391.752 481.003C390.572 481.266 389.786 482.446 390.048 483.626C390.31 484.806 391.489 485.593 392.669 485.331C393.849 485.069 394.766 483.626 394.504 482.577C394.111 481.528 392.669 480.61 391.62 481.135" fill="white"></path></g></g></g><path d="M368.686 502.248C368.424 502.248 368.424 500.15 366.589 498.314C364.885 496.478 362.788 496.215 362.788 495.953C362.788 495.822 363.312 495.691 364.23 495.953C365.147 496.215 366.196 496.74 367.244 497.789C368.162 498.838 368.686 500.018 368.817 500.936C368.948 501.723 368.817 502.248 368.686 502.248Z" fill="white"></path><path d="M364.229 506.05C363.967 506.181 363.312 504.477 361.739 503.296C360.167 501.985 358.463 501.723 358.463 501.461C358.463 501.198 360.429 501.198 362.264 502.641C364.098 503.952 364.492 505.919 364.229 506.05Z" fill="white"></path><path d="M375.762 497.921C375.499 498.052 374.451 495.56 372.092 493.462C369.733 491.233 367.243 490.446 367.374 490.183C367.374 489.921 370.257 490.446 372.747 492.806C375.237 495.167 375.893 497.921 375.762 497.921Z" fill="white"></path><path d="M380.611 487.429C380.48 487.56 378.776 485.987 376.286 484.937C373.796 483.757 371.568 483.626 371.568 483.495C371.568 483.233 373.927 483.101 376.679 484.282C379.3 485.331 380.742 487.298 380.611 487.429Z" fill="white"></path><path d="M384.674 477.069C384.543 477.201 382.97 475.234 380.218 474.316C377.466 473.266 375.107 473.922 375.107 473.66C375.107 473.529 375.631 473.266 376.679 473.135C377.728 473.004 379.169 473.004 380.611 473.529C382.053 474.053 383.232 474.84 383.887 475.627C384.543 476.414 384.674 476.938 384.674 477.069Z" fill="white"></path><path d="M381.004 472.348C381.004 472.348 381.004 471.824 381.528 471.037C381.921 470.25 382.708 469.07 384.018 467.89C384.674 467.365 385.329 466.71 386.508 466.578C387.033 466.578 387.819 466.972 388.081 467.496C388.343 468.152 388.212 468.808 388.081 469.332C387.164 471.562 384.411 473.004 381.79 472.348C379.169 471.693 377.465 469.332 377.203 466.972C377.203 466.447 377.203 465.66 377.728 465.267C378.252 464.742 379.038 464.742 379.562 465.136C380.611 465.66 381.004 466.578 381.397 467.234C382.184 468.677 382.577 469.988 382.708 470.906C382.839 471.824 382.839 472.348 382.839 472.348C382.708 472.348 382.577 470.25 380.873 467.496C380.48 466.841 379.956 466.054 379.169 465.66C378.776 465.529 378.383 465.529 378.252 465.792C377.99 466.054 377.859 466.447 377.99 466.972C378.252 468.939 379.824 471.037 382.052 471.562C384.28 472.086 386.771 470.906 387.426 469.07C387.557 468.677 387.688 468.152 387.557 467.759C387.426 467.365 387.164 467.234 386.771 467.234C385.984 467.234 385.198 467.759 384.543 468.283C381.79 470.381 381.135 472.48 381.004 472.348Z" fill="white"></path><path d="M330.024 438.515L331.203 467.627C331.203 467.627 302.109 478.511 301.715 483.888L358.07 483.757L358.201 438.384L330.024 438.515Z" fill="#72A065"></path><g opacity="0.6"><g opacity="0.6"><path opacity="0.6" d="M348.634 465.136C349.683 465.398 350.469 466.71 350.207 467.759C349.945 468.808 348.765 469.595 347.586 469.332C346.537 469.07 345.489 467.628 345.882 466.579C346.275 465.529 347.717 464.611 348.765 465.267" fill="white"></path></g></g><g opacity="0.6"><path opacity="0.6" d="M358.07 483.757V479.298L303.813 481.134C303.813 481.134 301.323 482.183 301.585 484.019L358.07 483.757Z" fill="white"></path></g><path d="M330.285 467.365C330.285 467.627 331.727 467.758 333.038 468.676C334.479 469.463 335.135 470.774 335.397 470.643C335.659 470.643 335.266 468.938 333.562 467.889C331.858 466.709 330.154 467.102 330.285 467.365Z" fill="white"></path><path d="M324.388 469.725C324.388 469.988 325.567 470.512 326.484 471.561C327.402 472.741 327.664 473.922 327.926 473.922C328.188 473.922 328.319 472.348 327.14 470.906C325.96 469.594 324.388 469.463 324.388 469.725Z" fill="white"></path><path d="M320.981 476.807C321.243 476.807 321.636 475.495 320.85 473.922C320.195 472.348 318.884 471.824 318.753 472.086C318.622 472.348 319.408 473.135 320.064 474.315C320.588 475.627 320.719 476.807 320.981 476.807Z" fill="white"></path><path d="M330.679 460.677C330.81 460.939 332.12 460.545 333.562 460.677C335.135 460.808 336.314 461.201 336.445 461.07C336.576 460.808 335.397 459.89 333.562 459.759C331.858 459.496 330.548 460.414 330.679 460.677Z" fill="white"></path><g opacity="0.3"><path opacity="0.3" d="M330.286 444.285L330.417 449.399L358.201 449.137V444.416L330.286 444.285Z" fill="black"></path></g><path d="M330.548 454.775C330.548 454.906 331.597 455.038 333.432 454.775C334.349 454.644 335.267 454.382 336.446 453.857C336.97 453.595 337.495 453.333 338.019 452.939C338.281 452.808 338.543 452.546 338.805 452.284C339.067 452.021 339.329 451.235 338.936 450.841C338.674 450.448 338.15 450.186 337.757 450.186C337.363 450.186 336.97 450.317 336.708 450.317C336.053 450.448 335.529 450.71 335.004 450.972C333.956 451.497 333.039 452.153 332.383 452.677C331.073 453.857 330.68 454.906 330.68 455.038C330.811 455.169 331.466 454.251 332.776 453.202C333.432 452.677 334.349 452.153 335.267 451.759C335.791 451.497 336.315 451.366 336.839 451.235C337.495 451.103 337.888 451.103 338.15 451.366C338.15 451.497 338.15 451.497 338.15 451.628C338.019 451.759 337.757 451.89 337.495 452.153C336.97 452.415 336.446 452.808 336.053 453.071C335.136 453.595 334.087 453.857 333.301 454.12C331.728 454.513 330.548 454.644 330.548 454.775Z" fill="white"></path><path d="M330.942 455.169C331.073 455.169 331.597 454.252 331.729 452.416C331.729 451.498 331.728 450.449 331.335 449.268C331.204 448.744 330.942 448.088 330.549 447.564C330.156 447.039 329.763 446.252 328.714 446.121C328.19 446.121 327.666 446.515 327.535 446.908C327.404 447.301 327.272 447.564 327.272 447.957C327.141 448.613 327.141 449.268 327.272 449.924C327.404 451.104 327.928 452.153 328.452 452.809C329.501 454.252 330.68 454.645 330.68 454.514C330.811 454.383 329.763 453.858 328.976 452.416C328.583 451.76 328.19 450.842 328.059 449.793C328.059 449.268 328.059 448.744 328.059 448.219C328.19 447.564 328.321 447.17 328.583 447.17C328.845 447.17 329.369 447.564 329.632 448.088C329.894 448.613 330.156 449.137 330.287 449.662C330.68 450.711 330.811 451.629 330.811 452.416C331.073 454.12 330.811 455.169 330.942 455.169Z" fill="white"></path><path d="M358.199 299.117C391.488 302.527 435.654 307.117 435.654 307.117L429.626 361.407C429.626 361.407 364.752 344.228 365.146 345.671C365.67 347.113 362.131 461.202 362.131 461.202H323.076L322.29 332.033C322.159 312.493 338.803 297.15 358.199 299.117Z" fill="#134896"></path><path d="M515.469 321.017V337.802C515.469 349.211 502.363 361.407 490.961 361.407H482.049C475.103 361.407 464.094 356.293 458.459 352.227L455.051 349.736L414.293 475.889C414.293 475.889 367.767 467.496 367.767 466.054C367.767 464.611 399.352 362.718 413.899 315.378C419.797 296.101 440.504 284.823 459.638 291.38C460.294 291.642 460.949 291.905 461.604 292.167C482.442 300.691 515.469 321.017 515.469 321.017Z" fill="#134896"></path><path d="M367.897 466.185C367.897 466.185 368.029 466.054 368.16 465.792C368.291 465.398 368.422 465.005 368.684 464.48C369.077 463.3 369.732 461.595 370.519 459.235C372.091 454.645 374.188 448.088 376.809 439.827C382.052 423.435 388.998 400.617 396.599 375.439C400.4 362.85 403.938 350.785 407.215 339.901C408.787 334.393 410.36 329.279 411.802 324.427C412.588 321.935 413.243 319.706 413.899 317.345C414.554 315.116 415.209 312.887 415.995 310.919C417.568 306.985 420.058 303.969 422.548 301.609C425.038 299.248 427.397 297.544 429.494 296.232C431.46 294.921 433.033 293.872 434.212 293.216C434.737 292.954 435.13 292.692 435.392 292.429C435.654 292.298 435.785 292.167 435.785 292.167C435.785 292.167 435.654 292.167 435.392 292.429C434.999 292.56 434.606 292.823 434.081 293.085C432.902 293.741 431.329 294.659 429.363 295.97C427.266 297.281 424.907 298.986 422.286 301.215C419.796 303.576 417.175 306.592 415.471 310.657C414.554 312.624 413.899 314.854 413.243 317.083C412.588 319.312 411.802 321.673 411.146 324.033C409.705 328.885 408.132 334.131 406.428 339.507C403.152 350.392 399.482 362.456 395.682 375.045C388.08 400.223 381.265 422.91 376.285 439.564C373.795 447.695 371.698 454.383 370.257 459.104C369.601 461.333 368.946 463.169 368.553 464.349C368.422 464.874 368.291 465.398 368.16 465.792C367.897 465.923 367.897 466.185 367.897 466.185Z" fill="#134896"></path><path d="M358.07 329.41C357.807 329.541 360.035 332.95 361.87 337.409C363.705 341.868 364.491 345.802 364.885 345.802C365.147 345.802 364.753 341.737 362.788 337.016C360.822 332.295 358.201 329.147 358.07 329.41Z" fill="#134896"></path><path d="M350.598 334.655C350.467 334.917 353.875 336.36 357.282 339.114C360.821 341.868 363.049 344.753 363.311 344.621C363.573 344.49 361.607 341.212 357.937 338.327C354.268 335.442 350.598 334.393 350.598 334.655Z" fill="#134896"></path><path d="M414.03 476.02C414.292 476.151 425.301 442.318 438.538 400.616C451.906 358.915 462.39 324.951 462.128 324.951C461.866 324.819 450.857 358.653 437.62 400.354C424.384 442.055 413.768 475.889 414.03 476.02Z" fill="#134896"></path><path d="M463.965 279.185L330.68 280.496L305.91 210.207L402.761 210.863L425.303 274.07L463.965 274.595V279.185Z" fill="#475056"></path><path d="M356.847 246.712C356.432 243.771 358.478 241.051 361.416 240.636C364.355 240.22 367.073 242.267 367.489 245.207C367.904 248.148 365.858 250.868 362.92 251.283C359.981 251.699 357.262 249.652 356.847 246.712Z" fill="white"></path><path d="M474.841 89.0367C473.53 84.3158 470.122 82.0864 465.535 80.5128C460.948 78.9392 455.575 79.8571 451.774 82.7421C449.153 84.7092 447.187 87.5942 444.173 88.6433C439.193 90.348 433.295 86.6762 428.446 88.9055C425.563 90.2169 423.99 93.7576 424.646 96.7737C425.432 99.7898 428.446 102.15 431.592 102.019C428.315 103.199 427.267 107.92 429.233 110.805C431.198 113.69 435.13 114.871 438.538 114.215C441.945 113.559 444.959 111.461 447.581 109.101C450.202 106.74 452.561 104.117 455.313 102.019C458.065 99.921 461.473 98.3474 465.011 98.4785C469.729 98.7408 473.792 102.281 475.889 106.478C477.986 110.674 478.51 115.526 478.772 120.247C479.034 124.968 479.165 129.82 480.476 134.279C480.607 134.803 480.869 135.459 481.393 135.59C482.18 135.852 482.835 135.066 483.228 134.279C487.553 126.279 490.305 117.493 491.223 108.445C491.747 103.199 491.616 98.2162 488.733 93.8887C485.718 89.4301 478.379 86.1517 474.841 89.0367Z" fill="#263238"></path><path d="M484.015 110.937L486.374 164.047C486.767 173.095 485.588 186.471 471.302 186.471C458.852 185.553 455.182 173.882 454.92 165.489C454.789 161.555 454.527 158.146 454.527 157.752C454.527 157.752 441.028 157.097 439.324 143.721C438.538 137.295 438.014 123.919 437.752 111.724C437.359 98.741 447.188 87.5944 460.031 86.2831L461.342 86.1519C475.365 85.4962 483.622 96.9051 484.015 110.937Z" fill="#FFBE9D"></path><path d="M454.396 157.49C454.396 157.49 462.915 157.228 471.303 150.671C471.303 150.671 468.157 160.768 454.79 160.9L454.396 157.49Z" fill="#EB996E"></path><path d="M442.6 120.247C442.731 121.296 443.648 122.083 444.696 121.952C445.745 121.952 446.531 121.034 446.531 119.985C446.4 118.936 445.483 118.149 444.434 118.28C443.255 118.411 442.468 119.198 442.6 120.247Z" fill="#263238"></path><path d="M441.289 118.018C441.551 118.28 442.861 116.969 444.958 116.838C447.055 116.576 448.628 117.493 448.759 117.231C448.89 117.1 448.628 116.707 447.841 116.313C447.186 115.92 446.007 115.526 444.696 115.658C443.385 115.789 442.337 116.444 441.813 116.969C441.289 117.362 441.157 117.887 441.289 118.018Z" fill="#263238"></path><path d="M462.783 118.805C462.914 119.854 463.832 120.64 464.88 120.509C465.929 120.509 466.715 119.591 466.715 118.542C466.584 117.493 465.666 116.706 464.618 116.838C463.438 116.969 462.652 117.755 462.783 118.805Z" fill="#263238"></path><path d="M461.472 116.182C461.734 116.444 463.045 115.133 465.142 115.002C467.239 114.74 468.811 115.658 468.942 115.395C469.073 115.264 468.811 114.871 468.025 114.477C467.37 114.084 466.19 113.69 464.88 113.822C463.569 113.953 462.521 114.608 461.996 115.133C461.472 115.658 461.341 116.051 461.472 116.182Z" fill="#263238"></path><path d="M455.705 132.181C455.705 132.05 454.394 131.919 452.298 131.919C451.773 131.919 451.249 131.919 451.118 131.525C450.987 131.132 451.118 130.607 451.249 129.951C451.642 128.64 452.035 127.198 452.429 125.755C454.001 119.854 455.05 115.002 454.788 115.002C454.526 115.002 453.084 119.723 451.511 125.624C451.118 127.067 450.725 128.509 450.463 129.82C450.332 130.476 450.07 131.132 450.463 131.919C450.594 132.312 451.118 132.574 451.38 132.574C451.773 132.705 452.035 132.574 452.298 132.574C454.394 132.443 455.705 132.312 455.705 132.181Z" fill="#263238"></path><path d="M461.864 132.968C461.471 132.968 461.733 135.197 460.03 137.033C458.326 138.869 455.836 138.869 455.967 139.131C455.967 139.262 456.491 139.525 457.54 139.393C458.588 139.262 459.899 138.869 460.947 137.82C461.996 136.771 462.389 135.328 462.389 134.41C462.258 133.492 461.996 132.968 461.864 132.968Z" fill="#263238"></path><path d="M460.031 108.183C460.294 108.707 462.259 108.183 464.75 108.314C467.24 108.314 469.205 108.838 469.468 108.314C469.599 108.051 469.205 107.527 468.288 107.133C467.502 106.74 466.191 106.347 464.75 106.347C463.308 106.347 461.997 106.74 461.211 107.133C460.425 107.527 460.031 107.92 460.031 108.183Z" fill="#263238"></path><path d="M441.422 111.986C441.815 112.379 443.257 111.723 444.829 111.592C446.533 111.33 447.975 111.592 448.237 111.068C448.368 110.805 448.106 110.412 447.45 110.019C446.795 109.625 445.747 109.363 444.567 109.494C443.388 109.625 442.47 110.15 441.946 110.674C441.422 111.199 441.291 111.723 441.422 111.986Z" fill="#263238"></path><path d="M483.884 120.902C484.146 120.771 492.796 117.231 493.451 126.41C494.107 135.59 484.802 134.409 484.802 134.147C484.802 133.754 483.884 120.902 483.884 120.902Z" fill="#FFBE9D"></path><path d="M487.292 130.344C487.292 130.344 487.423 130.475 487.685 130.607C487.948 130.738 488.472 130.738 488.865 130.607C489.782 130.213 490.569 128.64 490.438 126.935C490.438 126.148 490.176 125.361 489.782 124.705C489.389 124.05 488.996 123.656 488.472 123.525C487.948 123.394 487.686 123.788 487.554 124.05C487.423 124.312 487.554 124.443 487.423 124.574C487.423 124.574 487.161 124.443 487.292 124.05C487.292 123.919 487.423 123.656 487.554 123.394C487.817 123.263 488.079 123.132 488.472 123.132C489.127 123.132 489.913 123.788 490.307 124.443C490.7 125.099 490.962 126.017 491.093 126.935C491.224 128.771 490.307 130.607 489.127 131C488.472 131.262 487.948 131 487.685 130.869C487.423 130.607 487.292 130.475 487.292 130.344Z" fill="#EB996E"></path><path d="M434.608 109.232C440.636 110.15 447.058 107.92 451.252 103.593C454.266 100.446 456.232 96.2492 460.164 94.5444C462.785 93.3642 465.93 93.6264 468.551 94.8067C471.172 95.9869 473.4 97.8228 475.497 99.921C473.663 107.002 476.153 114.346 478.643 121.165C478.905 121.952 479.298 122.739 479.953 123.132C481.133 123.788 482.706 123.001 483.492 121.952C484.802 120.247 485.196 117.887 485.327 115.788C485.72 110.805 485.327 105.691 483.623 100.97C482.05 96.2492 479.167 91.9217 475.235 88.7744C470.255 84.9714 463.833 83.3978 457.543 84.1846C451.252 84.9714 445.485 87.8564 441.029 92.1839C438.932 94.151 436.967 96.5114 436.18 99.2653" fill="#263238"></path><path d="M582.699 356.031H639.447V478.382H582.699V356.031Z" fill="#475056"></path><path d="M587.549 465.399C587.549 465.399 587.549 465.268 587.549 464.874C587.549 464.481 587.549 463.957 587.549 463.301C587.549 461.99 587.549 460.022 587.549 457.4C587.549 452.285 587.549 444.811 587.68 435.5C587.68 416.879 587.811 390.651 587.811 360.097L587.549 360.359C602.227 360.359 618.347 360.359 634.991 360.359L634.598 359.965C634.598 400.88 634.729 437.992 634.729 465.137L634.991 464.874C620.313 464.874 608.518 465.006 600.261 465.006C596.198 465.006 592.922 465.006 590.825 465.006C589.777 465.006 588.99 465.006 588.335 465.006C587.942 465.399 587.549 465.399 587.549 465.399C587.549 465.399 587.811 465.399 588.335 465.399C588.859 465.399 589.777 465.399 590.825 465.399C593.053 465.399 596.198 465.399 600.261 465.399C608.518 465.399 620.444 465.53 635.122 465.53H635.385V465.268C635.385 437.992 635.385 400.88 635.516 360.097V359.703H635.122C618.478 359.703 602.358 359.703 587.68 359.703H587.418V359.965C587.418 390.651 587.549 416.879 587.549 435.631C587.549 444.942 587.68 452.285 587.68 457.4C587.68 459.891 587.68 461.858 587.68 463.17C587.68 463.825 587.68 464.35 587.68 464.612C587.549 465.268 587.549 465.399 587.549 465.399Z" fill="#BABABA"></path><path d="M590.562 369.145C590.562 369.145 590.562 368.751 590.562 367.833C590.562 366.916 590.562 365.735 590.693 364.293L590.562 364.424C597.901 364.555 613.628 364.555 631.845 364.555C631.714 364.424 632.238 364.949 631.452 364.162V364.293V364.424V364.686V365.342C631.452 365.735 631.452 366.129 631.452 366.522C631.452 367.309 631.452 368.096 631.452 368.883L631.845 368.489C620.312 368.489 609.959 368.62 602.619 368.62C598.95 368.62 595.935 368.751 593.839 368.751C592.79 368.751 592.004 368.751 591.479 368.751C590.824 369.145 590.562 369.145 590.562 369.145C590.562 369.145 590.824 369.145 591.348 369.145C592.004 369.145 592.659 369.145 593.707 369.145C595.804 369.145 598.819 369.145 602.357 369.276C609.827 369.407 620.181 369.407 631.845 369.407H632.238V369.014C632.238 368.227 632.238 367.44 632.238 366.653C632.238 366.26 632.238 365.866 632.238 365.473V364.817V364.555V364.424V364.293C631.583 363.637 632.107 364.162 631.845 363.899C613.628 363.899 597.901 364.031 590.562 364.031H590.431V364.162C590.431 365.735 590.431 366.916 590.562 367.833C590.431 368.751 590.562 369.145 590.562 369.145Z" fill="#BABABA"></path><path d="M629.618 372.948C628.532 372.948 627.652 372.772 627.652 372.555C627.652 372.337 628.532 372.161 629.618 372.161C630.704 372.161 631.584 372.337 631.584 372.555C631.584 372.772 630.704 372.948 629.618 372.948Z" fill="#BABABA"></path><path d="M611.269 379.374C600.412 379.374 591.611 379.198 591.611 378.98C591.611 378.763 600.412 378.587 611.269 378.587C622.126 378.587 630.928 378.763 630.928 378.98C630.928 379.198 622.126 379.374 611.269 379.374Z" fill="#BABABA"></path><path d="M610.746 386.979C600.106 386.979 591.481 386.803 591.481 386.586C591.481 386.369 600.106 386.192 610.746 386.192C621.386 386.192 630.012 386.369 630.012 386.586C630.012 386.803 621.386 386.979 610.746 386.979Z" fill="#BABABA"></path><path d="M611.271 407.568C609.534 407.568 608.125 406.159 608.125 404.421C608.125 402.683 609.534 401.273 611.271 401.273C613.008 401.273 614.416 402.683 614.416 404.421C614.416 406.159 613.008 407.568 611.271 407.568Z" fill="#72A065"></path><path d="M624.244 404.551C621.927 404.551 620.05 404.375 620.05 404.158C620.05 403.941 621.927 403.765 624.244 403.765C626.56 403.765 628.438 403.941 628.438 404.158C628.438 404.375 626.56 404.551 624.244 404.551Z" fill="#BABABA"></path><path d="M598.689 403.765C596.518 403.765 594.758 403.589 594.758 403.372C594.758 403.155 596.518 402.979 598.689 402.979C600.861 402.979 602.621 403.155 602.621 403.372C602.621 403.589 600.861 403.765 598.689 403.765Z" fill="#BABABA"></path><path d="M637.481 417.403C637.481 417.403 638.267 417.403 639.578 417.009C640.889 416.616 642.986 415.96 645.213 414.387C647.441 412.944 649.932 410.584 652.028 407.305C654.125 404.027 655.829 399.962 657.009 395.241C658.188 390.52 658.974 385.274 658.581 379.636C658.188 373.997 656.484 367.833 652.684 362.719C650.849 360.096 648.359 357.736 645.607 355.9C644.165 354.982 642.592 354.195 641.02 353.671C639.447 353.146 637.743 352.753 635.908 352.49C632.501 351.966 628.962 352.097 625.293 351.835C621.754 351.572 618.085 351.048 614.939 349.474C611.663 347.901 609.173 345.016 608.517 341.606C607.731 338.197 608.649 334.525 610.876 332.033C613.104 329.542 616.381 327.968 619.526 328.099C621.099 328.23 622.672 328.755 623.851 329.673C625.031 330.591 625.817 332.164 625.686 333.607C625.424 336.623 622.672 339.114 619.788 339.246C616.905 339.508 614.153 337.934 612.318 335.836C610.483 333.738 609.435 331.246 608.649 328.755C607.993 326.263 607.469 323.772 607.076 321.411C605.765 311.838 606.158 304.101 606.421 298.725C606.552 296.102 606.683 294.004 606.683 292.561C606.683 291.905 606.683 291.381 606.814 290.987C606.814 290.594 606.814 290.463 606.814 290.463C606.814 290.463 606.814 290.594 606.683 290.987C606.683 291.381 606.552 291.905 606.552 292.561C606.421 294.004 606.289 296.102 606.158 298.725C605.896 304.101 605.372 311.969 606.683 321.542C607.076 323.903 607.469 326.394 608.124 329.017C608.78 331.509 609.959 334.131 611.794 336.361C613.76 338.459 616.512 340.164 619.788 339.901C622.934 339.77 625.948 337.147 626.21 333.738C626.341 332.033 625.555 330.328 624.113 329.279C622.803 328.23 621.099 327.574 619.395 327.443C615.988 327.181 612.449 328.886 610.09 331.509C607.731 334.131 606.814 338.065 607.6 341.737C607.993 343.573 608.78 345.278 609.959 346.72C611.139 348.163 612.711 349.343 614.284 350.13C617.691 351.835 621.361 352.359 624.9 352.622C628.438 352.884 631.977 352.753 635.384 353.277C637.088 353.539 638.792 353.933 640.364 354.457C641.937 354.982 643.379 355.769 644.82 356.687C647.573 358.523 649.932 360.752 651.766 363.244C655.567 368.358 657.271 374.259 657.664 379.898C658.057 385.537 657.402 390.782 656.222 395.372C655.043 399.962 653.47 404.027 651.373 407.305C649.407 410.584 646.917 412.813 644.82 414.387C642.592 415.96 640.626 416.616 639.316 417.141C638.661 417.403 638.136 417.403 637.743 417.534C637.743 417.272 637.481 417.403 637.481 417.403Z" fill="#263238"></path><path d="M522.414 166.276H656.879V258.727H522.414V166.276Z" fill="#475056"></path><path d="M581.652 246.007H600V280.889H581.652V246.007Z" fill="#475056"></path><path d="M643.512 279.578V292.167H574.182V478.906H567.761V292.167L277.993 293.61V478.906H271.702V293.217L227.012 293.61V278.529L643.512 279.578Z" fill="#475056"></path><path d="M599.084 289.676L571.693 309.346L574.183 311.707L601.705 290.856L599.084 289.676Z" fill="#475056"></path><path d="M245.884 291.512L277.73 314.198L275.371 316.428L243.393 292.692L245.884 291.512Z" fill="#475056"></path><path d="M470.909 274.988H542.598V280.234H470.909V274.988Z" fill="#475056"></path><g clip-path="url(#clip0)"><path d="M160.59 55.1452L189.591 60.0973C200.435 50.6882 214.566 44.9932 230.011 44.9932C264.269 44.9932 291.955 72.8905 291.955 107.226C291.955 141.643 264.187 169.458 230.011 169.458C195.834 169.458 168.066 141.561 168.066 107.226C168.066 97.5689 170.284 88.4899 174.145 80.3188L160.59 55.1452Z" fill="#FBFBFB"></path><path d="M223.193 11.4836C221.715 8.09958 218.182 5.78855 214.485 5.62348C210.788 5.54094 207.173 7.60436 205.448 10.9058C204.462 12.8042 204.051 15.1152 202.573 16.7659C200.765 18.7468 197.315 19.0769 195.097 17.4262C194.521 19.7372 195.918 22.4609 198.218 23.2863C196.986 23.4514 195.836 23.5339 194.604 23.699C196.575 27.9909 201.915 29.9717 206.598 29.1464C211.199 28.321 215.142 25.1846 218.346 21.7181" fill="#263238"></path><path d="M223.192 11.5663L212.019 15.2805C208.076 17.9216 204.954 21.7183 203.393 26.2578C202.9 27.7435 202.489 29.3942 201.832 30.7973C201.175 32.283 200.107 33.6036 198.71 34.2639C197.642 34.7591 196.41 34.8416 195.342 35.1718C193.452 35.832 192.055 37.5653 191.563 39.5462C191.07 41.5271 191.48 43.5905 192.548 45.3237C193.041 46.1491 193.781 46.9745 193.863 47.9649C193.863 48.6252 193.616 49.2855 193.452 49.9458C192.877 52.1743 193.945 54.7329 195.917 55.8884C197.888 57.0439 200.6 56.7963 202.325 55.2281C203.064 56.8788 203.968 58.6121 205.611 59.3549C207.254 60.0978 209.637 59.4375 209.965 57.7042C210.787 59.4375 212.758 60.4279 214.648 60.0978C216.455 59.7676 218.016 58.0344 218.098 56.136L248.824 22.4611C244.224 10.1632 226.314 11.2362 223.192 11.5663Z" fill="#263238"></path><path d="M218.018 23.2869C216.046 23.5345 214.567 25.1853 214.567 27.1661L216.703 78.9991C216.785 85.1068 227.876 92.37 234.366 92.2049C240.939 92.0398 239.049 85.0242 239.131 79.2467C239.296 69.5074 239.296 65.8758 239.296 65.9583C239.296 65.9583 247.675 64.5552 249.401 53.6604C250.222 48.2129 249.976 39.299 249.565 32.0358C249.154 25.4329 244.8 17.4268 238.31 18.0871L218.018 23.2869Z" fill="#FFBE9D"></path><path d="M246.771 39.0516C246.771 39.7944 246.196 40.4547 245.457 40.4547C244.718 40.4547 244.06 39.9595 243.978 39.2167C243.978 38.4738 244.553 37.8135 245.293 37.8135C246.032 37.731 246.689 38.3087 246.771 39.0516Z" fill="#263238"></path><path d="M247.675 36.575C247.511 36.7401 246.443 35.9972 244.964 35.9972C243.485 35.9972 242.335 36.7401 242.171 36.575C242.089 36.4925 242.253 36.1623 242.746 35.8322C243.239 35.502 244.06 35.1719 244.964 35.1719C245.868 35.1719 246.689 35.502 247.1 35.9147C247.593 36.1623 247.757 36.4925 247.675 36.575Z" fill="#263238"></path><path d="M232.066 39.0506C232.066 39.7934 231.491 40.4537 230.752 40.4537C230.013 40.4537 229.355 39.9585 229.273 39.2157C229.273 38.4728 229.848 37.8126 230.588 37.8126C231.409 37.73 232.066 38.3078 232.066 39.0506Z" fill="#263238"></path><path d="M232.888 36.9051C232.724 37.0701 231.656 36.3273 230.177 36.3273C228.698 36.3273 227.548 37.0701 227.384 36.9051C227.302 36.8225 227.466 36.4924 227.959 36.1622C228.452 35.8321 229.273 35.502 230.177 35.502C231.081 35.502 231.902 35.8321 232.313 36.2448C232.806 36.4924 232.97 36.8225 232.888 36.9051Z" fill="#263238"></path><path d="M238.31 48.048C238.31 47.9655 239.214 47.8004 240.775 47.6353C241.186 47.6353 241.514 47.5528 241.596 47.2226C241.678 46.975 241.514 46.5623 241.35 46.0671C241.021 45.1592 240.61 44.1688 240.2 43.1783C238.639 39.0515 237.489 35.585 237.653 35.5025C237.817 35.4199 239.214 38.8039 240.775 42.9307C241.186 43.9212 241.514 44.9116 241.843 45.9021C242.007 46.3147 242.254 46.81 242.007 47.3877C241.925 47.6353 241.596 47.8829 241.35 47.9655C241.103 48.048 240.857 48.048 240.693 48.048C239.296 48.1305 238.31 48.1305 238.31 48.048Z" fill="#263238"></path><path d="M239.377 65.8753C239.377 65.8753 232.065 66.3705 224.836 61.9961C224.836 61.9961 228.368 69.5069 239.295 68.4339L239.377 65.8753Z" fill="#EB996E"></path><path d="M237.653 51.6796C237.078 50.9367 236.174 50.6066 235.188 50.6891C234.531 50.7717 233.874 51.1018 233.463 51.597C233.052 52.0923 232.97 52.9176 233.381 53.4128C233.792 53.9906 234.613 54.1557 235.353 53.9081C236.092 53.743 236.667 53.2478 237.242 52.7525C237.407 52.5875 237.571 52.5049 237.653 52.3399C237.9 52.0923 237.9 51.8446 237.653 51.6796Z" fill="#EB996E"></path><path d="M233.874 49.1211C234.12 49.1211 234.12 50.7718 235.517 51.9273C236.913 53.0829 238.639 52.9178 238.639 53.1654C238.639 53.2479 238.228 53.4955 237.489 53.4955C236.749 53.4955 235.681 53.2479 234.86 52.5876C234.038 51.8448 233.627 50.9369 233.627 50.2766C233.627 49.5338 233.792 49.1211 233.874 49.1211Z" fill="#263238"></path><path d="M233.544 34.2639C233.38 34.6766 231.901 34.5115 230.094 34.6766C228.286 34.8417 226.89 35.3369 226.643 35.0067C226.561 34.8416 226.808 34.429 227.383 34.0163C227.958 33.6036 228.862 33.2735 229.93 33.1084C230.998 33.0258 231.983 33.1909 232.558 33.4385C233.298 33.7687 233.626 34.0988 233.544 34.2639Z" fill="#263238"></path><path d="M247.101 32.283C246.855 32.6132 245.787 32.283 244.554 32.283C243.322 32.2005 242.254 32.5306 242.008 32.118C241.925 31.9529 242.09 31.6227 242.5 31.2926C242.993 30.9625 243.733 30.7148 244.554 30.7148C245.376 30.7148 246.115 31.045 246.608 31.3751C247.101 31.7053 247.183 32.118 247.101 32.283Z" fill="#263238"></path><path d="M215.798 40.7024C214.977 40.1246 213.827 40.3723 212.923 40.8675C210.951 42.023 209.965 44.6642 210.705 46.8926C211.444 49.1211 213.827 50.6068 216.127 50.2766" fill="#FFBE9D"></path><path d="M232.887 14.4554C236.83 14.6205 239.87 15.776 243.321 17.6743C246.771 19.5727 249.729 22.7091 250.797 26.5883C251.043 27.4136 251.125 28.3215 250.714 29.0644C250.139 29.9723 248.743 30.1373 247.757 29.7247C246.771 29.2294 246.032 28.3215 245.292 27.4962C244.799 29.477 242.828 31.0452 240.774 30.9627C238.72 30.9627 236.748 29.3945 236.255 27.3311C236.255 29.3945 234.119 31.1278 232.065 31.0452C230.011 30.9627 228.122 29.3945 227.465 27.4136C227.054 29.312 226.643 31.2103 225.575 32.7785C224.425 34.3467 222.453 35.4197 220.646 34.7594C220.892 36.4101 221.139 38.0608 220.564 39.629C219.989 41.1972 218.263 42.4353 216.702 41.8575C215.224 41.3623 214.649 39.5465 214.238 37.9783C213.581 35.007 213.005 31.9531 213.088 28.8168C213.17 25.7629 213.991 22.6265 215.881 20.1504C217.853 17.5918 220.81 16.0236 223.85 15.1982C226.89 14.3729 230.176 14.2903 233.298 14.3729" fill="#263238"></path><path d="M215.06 46.9743C215.06 46.8918 214.649 47.0569 214.074 46.8093C213.581 46.6442 213.088 45.8188 213.171 44.9109C213.171 44.003 213.746 43.3427 214.321 43.1777C214.896 42.9301 215.307 43.0951 215.307 43.0126C215.307 42.9301 214.896 42.6824 214.239 42.8475C213.91 42.9301 213.499 43.0951 213.171 43.5078C212.842 43.9205 212.678 44.4157 212.596 44.9109C212.513 45.9839 213.171 46.9743 213.992 47.1394C214.649 47.387 215.06 47.0569 215.06 46.9743Z" fill="#EB996E"></path><path d="M214.73 51.5133C213.959 51.5133 213.334 50.8851 213.334 50.1102C213.334 49.3352 213.959 48.707 214.73 48.707C215.502 48.707 216.127 49.3352 216.127 50.1102C216.127 50.8851 215.502 51.5133 214.73 51.5133Z" fill="#E8505B"></path><path d="M223.027 10.9886C223.027 10.9886 222.37 10.7409 221.22 10.8235C220.152 10.8235 218.591 11.1536 217.112 12.0615C215.633 12.8869 214.565 14.1249 213.99 15.0328C213.415 16.0233 213.251 16.6836 213.251 16.6836C213.333 16.6836 213.58 16.1058 214.237 15.1979C214.894 14.29 215.88 13.217 217.277 12.3917C218.673 11.5663 220.152 11.2362 221.22 11.0711C222.37 10.9886 223.027 11.0711 223.027 10.9886Z" fill="#E8505B"></path><path d="M217.359 10.9886C217.359 10.9886 217.359 10.906 217.359 10.6584C217.359 10.4108 217.359 10.0807 217.113 9.66798C216.784 8.84261 215.798 7.85218 214.32 7.52203C212.759 7.10935 210.787 7.93471 209.473 9.42037C208.733 10.1632 208.158 11.0711 207.665 12.0615C207.172 13.052 206.761 14.125 206.351 15.1979C205.94 16.2709 205.529 17.3439 204.954 18.2518C204.379 19.1597 203.722 19.985 202.982 20.5628C202.243 21.1406 201.339 21.5532 200.518 21.7183C199.696 21.8834 198.875 21.7183 198.217 21.3882C196.903 20.8104 196.081 19.7374 195.753 18.9946C195.424 18.2518 195.424 17.7566 195.342 17.7566C195.342 17.7566 195.342 17.8391 195.342 18.0867C195.342 18.3343 195.424 18.6645 195.588 19.0771C195.917 19.9025 196.656 20.9755 198.053 21.7183C198.792 22.0485 199.614 22.2961 200.518 22.131C201.421 22.0485 202.325 21.6358 203.147 20.9755C203.968 20.3152 204.625 19.4898 205.2 18.5819C205.776 17.5915 206.186 16.601 206.597 15.5281C207.419 13.3821 208.24 11.3187 209.555 9.83305C210.869 8.3474 212.677 7.60457 214.073 8.01725C215.552 8.3474 216.456 9.2553 216.784 9.99813C217.442 10.4933 217.277 10.9886 217.359 10.9886Z" fill="#455A64"></path><path d="M237.898 27.8262C237.898 27.8262 237.898 27.7437 237.98 27.4961C237.98 27.331 238.062 27.0009 238.062 26.5882C238.144 25.8453 238.144 24.6898 237.898 23.3693C237.651 22.0487 237.158 20.4805 236.255 18.8297C235.351 17.2615 234.037 15.6934 232.311 14.4553C230.586 13.2173 228.697 12.4744 226.971 12.0618C225.246 11.6491 223.603 11.484 222.206 11.5665C220.81 11.6491 219.742 11.8967 219.002 12.1443C218.674 12.2268 218.345 12.3919 218.181 12.4744C218.016 12.557 217.934 12.6395 217.934 12.6395C217.934 12.722 219.495 11.9792 222.206 11.8967C223.521 11.8967 225.164 11.9792 226.889 12.4744C228.614 12.8871 230.422 13.7125 232.065 14.868C233.708 16.0235 235.022 17.5917 235.926 19.0774C236.83 20.6455 237.323 22.1312 237.651 23.4518C238.144 26.1755 237.734 27.8262 237.898 27.8262Z" fill="#455A64"></path><path d="M230.997 27.0834C230.997 27.0834 231.079 26.7533 230.997 26.258C230.997 25.6803 230.915 24.9375 230.668 23.947C230.257 22.0487 229.189 19.4075 227.135 17.2616C225.082 15.0331 222.617 13.795 220.727 13.2173C219.824 12.9697 219.002 12.8046 218.509 12.7221C217.934 12.6395 217.688 12.6395 217.688 12.7221C217.688 12.8046 218.92 12.8871 220.727 13.5474C222.535 14.2077 224.917 15.4458 226.889 17.5917C228.861 19.7377 229.929 22.2138 230.422 24.1121C230.915 25.9279 230.915 27.0834 230.997 27.0834Z" fill="#455A64"></path><path d="M232.887 91.544C235.27 84.1982 241.103 76.7699 247.428 79.4936C254.576 82.465 256.548 86.2616 260.409 92.1217C264.27 97.9818 266.735 104.75 269.035 111.353C269.939 113.994 270.843 116.965 269.446 119.359C268.214 121.422 265.749 122.248 263.449 122.825C257.533 124.394 251.536 125.797 245.539 126.87C243.156 127.282 240.445 127.695 238.309 126.457C235.598 124.889 234.777 121.422 234.202 118.368C232.23 107.556 230.258 96.7438 228.286 85.9315" fill="#EA6F57"></path><path d="M239.706 75.9449L249.071 79.9892C253.836 83.7033 255.151 90.1412 254.986 96.1663L258.848 162.278C258.848 162.278 231.572 179.198 199.696 161.535C198.875 161.04 205.036 145.936 205.036 145.936L196.328 112.921C195.671 108.134 195.26 98.3123 196.492 93.6902C199.696 81.7224 208.158 78.0908 216.785 75.6973C216.785 75.6973 225.493 83.043 233.955 81.4748C234.037 81.4748 239.213 80.9796 239.706 75.9449Z" fill="#EA6F57"></path><g opacity="0.2"><g opacity="0.2"><g opacity="0.2"><path opacity="0.2" d="M252.275 130.997C246.853 138.838 241.513 146.679 236.091 154.52C233.955 157.574 231.819 160.71 228.697 162.774C224.179 165.662 217.853 165.662 213.416 162.608C208.898 159.555 206.433 153.777 207.419 148.495C207.501 147.834 207.665 147.174 208.158 146.761C208.816 146.019 209.966 145.936 210.952 146.266C211.938 146.514 212.759 147.092 213.581 147.587C218.674 150.311 225.082 148.825 229.847 145.606C234.612 142.387 238.145 137.6 241.76 133.143C243.074 131.492 244.553 129.759 246.607 129.099C248.578 128.356 251.29 128.934 252.111 130.914" fill="#EF3E4B"></path></g></g></g><path d="M241.512 77.2653C241.43 77.1828 240.854 78.9986 238.636 80.8144C237.568 81.7223 236.09 82.5477 234.282 83.2079C232.475 83.7857 230.421 84.0333 228.285 83.7857C226.149 83.5381 224.177 82.8778 222.452 82.0524C220.727 81.2271 219.33 80.2366 218.262 79.4113C217.112 78.5034 216.29 77.7605 215.715 77.1828C215.14 76.605 214.812 76.3574 214.812 76.3574C214.812 76.3574 215.058 76.6876 215.633 77.3479C216.208 77.9256 217.03 78.751 218.098 79.6589C219.166 80.5668 220.644 81.5572 222.288 82.4651C224.013 83.373 225.985 84.0333 228.203 84.2809C230.421 84.5285 232.557 84.1984 234.364 83.6206C236.172 82.9603 237.733 82.0524 238.801 81.1445C239.869 80.1541 240.608 79.2462 240.937 78.5034C241.183 78.1732 241.265 77.8431 241.347 77.678C241.512 77.4304 241.512 77.3479 241.512 77.2653Z" fill="#263238"></path><path d="M213.334 76.9355C206.926 79.6593 200.272 82.4655 195.918 87.8304C191.399 93.2778 189.838 100.624 190.167 107.722C190.495 114.737 192.549 121.588 194.603 128.356C195.425 130.997 196.493 133.968 198.957 135.041C201.175 135.949 203.64 135.124 205.858 134.298C211.527 132.07 217.196 129.594 222.7 126.953C224.918 125.88 227.301 124.642 228.286 122.331C229.601 119.442 228.204 116.223 226.808 113.334C222.043 103.43 217.278 93.5254 212.513 83.7035" fill="#EA6F57"></path><path d="M224.425 126.045L225.822 131.574L254.247 110.775L262.956 98.3948C264.106 96.7441 265.913 95.5886 267.885 95.1759C270.021 94.7632 272.157 95.2584 273.964 96.4965L282.016 102.274C282.016 102.274 281.769 106.648 279.797 105.741C277.826 104.833 273.882 102.687 273.882 102.687L272.814 113.169L268.049 116.635L263.284 120.35L231.244 152.291C224.343 159.142 212.759 157.243 208.405 148.577L203.64 135.041L224.425 126.045Z" fill="#FFBE9D"></path><path d="M226.561 130.749C226.561 130.666 225.985 130.914 225.328 131.492C224.671 132.069 224.014 133.142 223.685 134.463C223.357 135.784 223.357 136.939 223.357 137.847C223.357 138.672 223.439 139.25 223.521 139.25C223.603 139.25 223.603 138.755 223.685 137.847C223.767 137.022 223.767 135.866 224.096 134.628C224.425 133.39 225 132.4 225.575 131.739C226.15 131.079 226.561 130.831 226.561 130.749Z" fill="#EB996E"></path><path d="M273.881 103.264C273.964 103.264 273.799 102.934 273.471 102.439C273.142 101.944 272.567 101.283 271.663 100.953C270.76 100.623 269.856 100.953 269.363 101.366C268.87 101.778 268.952 102.274 268.952 102.274C269.034 102.274 269.116 101.944 269.527 101.613C269.938 101.283 270.76 101.118 271.499 101.366C272.238 101.613 272.813 102.191 273.224 102.604C273.635 103.017 273.881 103.264 273.881 103.264Z" fill="#EB996E"></path><path d="M268.871 106.071C268.953 106.154 269.117 105.906 269.528 105.741C269.939 105.493 270.514 105.328 271.171 105.328C271.829 105.328 272.404 105.576 272.814 105.741C273.225 105.989 273.389 106.154 273.472 106.154C273.554 106.154 273.389 105.823 272.979 105.493C272.568 105.163 271.993 104.833 271.171 104.833C270.432 104.833 269.775 105.163 269.364 105.411C268.953 105.741 268.789 105.989 268.871 106.071Z" fill="#EB996E"></path><path d="M224.425 126.045C224.425 126.045 224.59 126.045 225 125.88C225.329 125.715 225.822 125.467 226.315 124.889C226.726 124.312 227.136 123.486 227.219 122.496C227.301 121.505 227.054 120.35 226.644 119.194C226.151 118.039 225.493 116.883 224.918 115.563C224.343 114.242 223.768 112.757 223.275 111.188C222.289 108.052 221.632 104.503 220.646 100.871C219.66 97.2398 218.346 93.7732 216.539 90.967C214.731 88.1607 212.267 86.2624 210.048 85.1894C207.748 84.1165 205.694 83.9514 204.298 84.0339C202.901 84.1165 202.161 84.4466 202.161 84.4466C202.161 84.5291 202.901 84.2815 204.298 84.199C205.694 84.1165 207.666 84.3641 209.884 85.437C212.102 86.51 214.403 88.4084 216.21 91.1321C218.017 93.8558 219.332 97.2398 220.235 100.871C221.221 104.503 221.961 108.052 222.947 111.271C223.44 112.839 224.015 114.325 224.59 115.645C225.247 116.966 225.904 118.121 226.397 119.277C226.89 120.433 227.136 121.505 227.054 122.496C226.972 123.486 226.644 124.229 226.233 124.807C225.822 125.385 225.411 125.632 225.083 125.797C224.59 126.045 224.425 126.045 224.425 126.045Z" fill="#263238"></path><path d="M254.713 101.042C254.208 97.1089 253.908 93.9062 254.043 93.8887C254.178 93.8712 254.697 97.0455 255.202 100.979C255.708 104.912 256.008 108.115 255.873 108.132C255.738 108.15 255.219 104.975 254.713 101.042Z" fill="#263238"></path><path d="M268.706 120.431L270.185 132.317L288.259 116.8L298.117 119.193C298.117 119.193 287.93 140.735 279.879 149.237C271.828 157.738 267.474 158.976 264.434 159.141C260.244 159.306 258.354 154.189 258.354 154.189L256.547 124.558L268.706 120.431Z" fill="#FFBE9D"></path><path d="M270.102 131.986C270.02 131.904 269.281 133.224 268.788 134.957C268.295 136.691 268.213 138.176 268.377 138.176C268.459 138.176 268.706 136.773 269.199 135.122C269.691 133.389 270.267 132.069 270.102 131.986Z" fill="#EB996E"></path><path d="M289.984 86.5918H303.621C305.675 86.5918 307.483 88.9854 306.743 90.9662L293.023 117.791C292.531 118.864 291.463 119.441 290.23 119.441H273.635C271.745 119.194 271.006 117.048 271.828 115.892L285.054 89.6457C286.04 87.8298 287.93 86.5918 289.984 86.5918Z" fill="#455A64"></path><path d="M290.969 88.2422H304.525C306.25 88.2422 307.318 90.058 306.579 91.5436L293.187 117.79C292.694 118.863 291.626 119.441 290.394 119.441H273.963C272.977 119.441 272.32 118.368 272.731 117.46L285.958 91.2135C286.944 89.3977 288.833 88.2422 290.969 88.2422Z" fill="#263238"></path><path d="M292.12 99.2197L300.417 102.521L302.225 109.207L298.199 119.194L283.576 121.34L287.848 116.965L287.272 113.168C287.272 113.168 283.165 111.848 283.083 111.27C283 110.61 283.576 108.546 284.233 108.464C284.89 108.381 289.162 109.949 289.162 109.949C289.162 109.949 284.068 105.905 284.233 105.245C284.397 104.585 284.89 102.934 285.958 102.769C286.944 102.604 295.159 106.483 295.159 106.483L296.474 109.537L297.624 104.667C297.542 104.585 290.312 102.521 292.12 99.2197Z" fill="#FFBE9D"></path><path d="M291.051 114.901C291.133 114.901 291.215 114.654 291.297 114.076C291.379 113.498 291.297 112.756 291.051 112.013C290.722 111.187 290.311 110.61 289.901 110.279C289.49 109.949 289.161 109.784 289.161 109.867C289.079 109.949 290.147 110.775 290.722 112.26C291.215 113.581 290.887 114.901 291.051 114.901Z" fill="#EB996E"></path><path d="M294.995 113.499C295.077 113.499 294.748 112.673 294.666 111.353C294.584 110.692 294.584 109.867 294.255 108.959C294.091 108.546 293.845 108.051 293.516 107.639C293.187 107.226 292.694 106.978 292.201 106.813C290.23 106.07 288.422 105.493 287.108 105.08C285.793 104.667 284.972 104.42 284.972 104.502C284.972 104.585 285.711 104.915 287.026 105.41C288.258 105.905 290.065 106.566 292.037 107.226C292.53 107.391 292.941 107.639 293.269 107.969C293.598 108.299 293.845 108.712 293.927 109.124C294.255 109.95 294.338 110.775 294.42 111.435C294.502 112.673 294.913 113.499 294.995 113.499Z" fill="#EB996E"></path><path d="M296.396 110.421C296.249 109.521 296.238 108.774 296.372 108.752C296.506 108.73 296.735 109.441 296.883 110.34C297.031 111.24 297.042 111.987 296.907 112.009C296.773 112.031 296.544 111.32 296.396 110.421Z" fill="#EB996E"></path><path d="M295.406 95.0105C294.453 95.0105 293.68 94.2345 293.68 93.2772C293.68 92.32 294.453 91.5439 295.406 91.5439C296.358 91.5439 297.131 92.32 297.131 93.2772C297.131 94.2345 296.358 95.0105 295.406 95.0105Z" fill="#FAFAFA"></path><path d="M263.201 120.432C263.201 120.432 263.037 120.597 262.708 120.844C262.38 121.174 261.887 121.587 261.312 122.082C260.079 123.238 258.436 124.724 256.547 126.539L256.465 126.622V126.704C256.711 129.511 256.957 132.73 257.204 136.279C257.615 141.396 257.861 146.018 258.025 149.402C258.108 151.053 258.19 152.373 258.19 153.364C258.19 154.272 258.272 154.849 258.272 154.849C258.272 154.849 258.354 154.354 258.354 153.364C258.354 152.456 258.354 151.053 258.272 149.402C258.19 146.018 257.943 141.396 257.533 136.279C257.286 132.73 256.957 129.511 256.711 126.704L256.629 126.869C258.518 125.054 260.161 123.485 261.312 122.33C261.805 121.835 262.297 121.34 262.626 121.009C263.037 120.597 263.201 120.432 263.201 120.432Z" fill="#EB996E"></path></g><path d="M290.522 222.07C290.522 222.07 285.71 234.685 271.092 247.672C269.242 249.341 267.021 251.011 264.801 252.681C264.246 253.052 263.875 253.423 263.32 253.794C263.32 253.794 263.875 250.826 265.356 246.744C267.576 240.622 272.017 231.717 279.789 226.337C282.75 224.297 286.266 222.627 290.522 222.07Z" fill="#B1D101"></path><path d="M279.606 226.338C278.125 234.872 274.609 242.107 271.094 247.487C268.503 251.568 265.912 254.536 264.617 256.206C264.617 255.093 264.802 253.794 264.802 252.681C264.987 250.641 265.172 248.785 265.357 246.745C267.578 240.437 271.834 231.718 279.606 226.338Z" fill="#9FAF00"></path><path d="M262.396 256.206C260.546 253.052 254.069 240.622 257.585 224.668C260.916 210.012 270.723 201.849 273.499 199.623C275.164 203.333 276.83 207.786 277.57 213.166C280.53 234.871 266.097 251.753 262.396 256.206Z" fill="#B1D101"></path><path d="M262.395 256.206C263.505 226.709 273.497 199.623 273.497 199.623C275.163 203.333 276.828 207.786 277.568 213.166C280.529 234.871 266.095 251.753 262.395 256.206Z" fill="#89A100"></path><path d="M261.471 254.536L261.286 256.206C260.916 256.02 250.923 249.898 247.592 231.718C247.407 231.718 257.215 232.46 261.471 254.536Z" fill="#89A100"></path><path d="M261.285 256.206C260.915 256.02 250.923 249.898 247.592 231.718C247.592 231.718 251.293 234.315 251.663 237.098C252.033 239.88 251.848 240.994 253.143 242.292C254.623 243.405 258.324 246.559 257.769 249.342C257.214 251.754 261.1 256.02 261.285 256.206Z" fill="#B1D101"></path><path d="M284.601 242.106C284.231 242.663 274.608 257.133 264.246 261.4V253.794C264.246 253.794 274.053 242.477 284.601 242.106Z" fill="#89A100"></path><path d="M284.601 242.106C284.231 242.477 274.608 257.133 264.246 261.4V258.432C265.356 256.391 267.947 252.866 270.167 253.052C272.943 253.052 274.423 250.64 276.274 247.301C278.124 243.962 284.416 242.106 284.601 242.106Z" fill="#B1D101"></path><path d="M277.755 253.794V271.604C277.755 275.499 274.609 278.653 270.723 278.653H261.471C257.585 278.653 254.439 275.499 254.439 271.604V253.794H277.755Z" fill="#C9CBCA"></path><path d="M271.834 253.794V271.604C271.834 275.499 268.688 278.653 264.802 278.653H261.471C257.585 278.653 254.439 275.499 254.439 271.604V253.794H271.834Z" fill="#E2E2E2"></path><path d="M35 349C17.3269 349 3 334.673 3 317C3 299.327 17.3269 285 35 285C52.6731 285 67 299.327 67 317C67 334.673 52.6731 349 35 349Z" fill="#2AB201"></path><path d="M45.8599 305.156H24.1088C21.8347 305.156 19.9844 307.007 19.9844 309.281V322.592C19.9844 324.862 21.8266 326.709 24.0942 326.716V332.757L32.7747 326.717H45.8599C48.1341 326.717 49.9844 324.867 49.9844 322.592V309.281C49.9844 307.007 48.1341 305.156 45.8599 305.156V305.156ZM41.9548 320.626H28.0139V318.868H41.9548V320.626ZM41.9548 316.876H28.0139V315.118H41.9548V316.876ZM41.9548 313.126H28.0139V311.368H41.9548V313.126Z" fill="white"></path><path d="M597 114C579.327 114 565 99.6731 565 82C565 64.3269 579.327 50 597 50C614.673 50 629 64.3269 629 82C629 99.6731 614.673 114 597 114Z" fill="#2AB201"></path><path d="M607.86 70.1562H586.109C583.835 70.1562 581.984 72.0065 581.984 74.2807V87.5919C581.984 89.8617 583.827 91.7087 586.094 91.7164V97.7572L594.775 91.7169H607.86C610.134 91.7169 611.984 89.8666 611.984 87.5919V74.2807C611.984 72.0065 610.134 70.1562 607.86 70.1562V70.1562ZM603.955 85.6255H590.014V83.8677H603.955V85.6255ZM603.955 81.8755H590.014V80.1177H603.955V81.8755ZM603.955 78.1255H590.014V76.3677H603.955V78.1255Z" fill="white"></path><defs><clipPath id="clip0"><rect width="151" height="164" transform="matrix(-1 0 0 1 311.59 5.62305)" fill="white"></rect></clipPath></defs></svg> 