<svg width="224" height="101" viewBox="0 0 224 101" fill="none" xmlns="http://www.w3.org/2000/svg">
<path d="M67.1639 88.1502C24.2614 64.6312 31.0355 34.6979 82.9701 21.8694C134.905 9.04085 78.454 28.8131 137.163 7.43218C195.871 -13.9487 243.599 22.1558 213.936 54.4702C202.646 66.7693 218.452 124.498 162.001 88.1502C116.841 59.0722 137.163 88.1502 67.1639 88.1502Z" fill="#FFF388" stroke="white"/>
<path d="M9 40.81H5.55V55H2.82V40.81H0.69V38.56H2.82V37.39C2.82 35.55 3.29 34.21 4.23 33.37C5.19 32.51 6.72 32.08 8.82 32.08V34.36C7.62 34.36 6.77 34.6 6.27 35.08C5.79 35.54 5.55 36.31 5.55 37.39V38.56H9V40.81ZM14.913 41.23C15.393 40.29 16.073 39.56 16.953 39.04C17.853 38.52 18.943 38.26 20.223 38.26V41.08H19.503C16.443 41.08 14.913 42.74 14.913 46.06V55H12.183V38.56H14.913V41.23ZM30.5445 55.27C29.0045 55.27 27.6045 54.92 26.3445 54.22C25.1045 53.52 24.1245 52.53 23.4045 51.25C22.7045 49.95 22.3545 48.45 22.3545 46.75C22.3545 45.07 22.7145 43.59 23.4345 42.31C24.1745 41.01 25.1745 40.02 26.4345 39.34C27.6945 38.64 29.1045 38.29 30.6645 38.29C32.2245 38.29 33.6345 38.64 34.8945 39.34C36.1545 40.02 37.1445 41 37.8645 42.28C38.6045 43.56 38.9745 45.05 38.9745 46.75C38.9745 48.45 38.5945 49.95 37.8345 51.25C37.0945 52.53 36.0845 53.52 34.8045 54.22C33.5245 54.92 32.1045 55.27 30.5445 55.27ZM30.5445 52.87C31.5245 52.87 32.4445 52.64 33.3045 52.18C34.1645 51.72 34.8545 51.03 35.3745 50.11C35.9145 49.19 36.1845 48.07 36.1845 46.75C36.1845 45.43 35.9245 44.31 35.4045 43.39C34.8845 42.47 34.2045 41.79 33.3645 41.35C32.5245 40.89 31.6145 40.66 30.6345 40.66C29.6345 40.66 28.7145 40.89 27.8745 41.35C27.0545 41.79 26.3945 42.47 25.8945 43.39C25.3945 44.31 25.1445 45.43 25.1445 46.75C25.1445 48.09 25.3845 49.22 25.8645 50.14C26.3645 51.06 27.0245 51.75 27.8445 52.21C28.6645 52.65 29.5645 52.87 30.5445 52.87ZM50.5739 38.26C52.5739 38.26 54.1939 38.87 55.4339 40.09C56.6739 41.29 57.2939 43.03 57.2939 45.31V55H54.5939V45.7C54.5939 44.06 54.1839 42.81 53.3639 41.95C52.5439 41.07 51.4239 40.63 50.0039 40.63C48.5639 40.63 47.4139 41.08 46.5539 41.98C45.7139 42.88 45.2939 44.19 45.2939 45.91V55H42.5639V38.56H45.2939V40.9C45.8339 40.06 46.5639 39.41 47.4839 38.95C48.4239 38.49 49.4539 38.26 50.5739 38.26ZM65.0834 40.81V50.5C65.0834 51.3 65.2534 51.87 65.5934 52.21C65.9334 52.53 66.5234 52.69 67.3634 52.69H69.3734V55H66.9134C65.3934 55 64.2534 54.65 63.4934 53.95C62.7334 53.25 62.3534 52.1 62.3534 50.5V40.81H60.2234V38.56H62.3534V34.42H65.0834V38.56H69.3734V40.81H65.0834ZM87.6811 46.15C87.6811 46.67 87.6511 47.22 87.5911 47.8H74.4511C74.5511 49.42 75.1011 50.69 76.1011 51.61C77.1211 52.51 78.3511 52.96 79.7911 52.96C80.9711 52.96 81.9511 52.69 82.7311 52.15C83.5311 51.59 84.0911 50.85 84.4111 49.93H87.3511C86.9111 51.51 86.0311 52.8 84.7111 53.8C83.3911 54.78 81.7511 55.27 79.7911 55.27C78.2311 55.27 76.8311 54.92 75.5911 54.22C74.3711 53.52 73.4111 52.53 72.7111 51.25C72.0111 49.95 71.6611 48.45 71.6611 46.75C71.6611 45.05 72.0011 43.56 72.6811 42.28C73.3611 41 74.3111 40.02 75.5311 39.34C76.7711 38.64 78.1911 38.29 79.7911 38.29C81.3511 38.29 82.7311 38.63 83.9311 39.31C85.1311 39.99 86.0511 40.93 86.6911 42.13C87.3511 43.31 87.6811 44.65 87.6811 46.15ZM84.8611 45.58C84.8611 44.54 84.6311 43.65 84.1711 42.91C83.7111 42.15 83.0811 41.58 82.2811 41.2C81.5011 40.8 80.6311 40.6 79.6711 40.6C78.2911 40.6 77.1111 41.04 76.1311 41.92C75.1711 42.8 74.6211 44.02 74.4811 45.58H84.8611ZM99.2946 38.26C101.295 38.26 102.915 38.87 104.155 40.09C105.395 41.29 106.015 43.03 106.015 45.31V55H103.315V45.7C103.315 44.06 102.905 42.81 102.085 41.95C101.265 41.07 100.145 40.63 98.7246 40.63C97.2846 40.63 96.1346 41.08 95.2746 41.98C94.4346 42.88 94.0146 44.19 94.0146 45.91V55H91.2846V38.56H94.0146V40.9C94.5546 40.06 95.2846 39.41 96.2046 38.95C97.1446 38.49 98.1746 38.26 99.2946 38.26ZM109.454 46.72C109.454 45.04 109.794 43.57 110.474 42.31C111.154 41.03 112.084 40.04 113.264 39.34C114.464 38.64 115.804 38.29 117.284 38.29C118.564 38.29 119.754 38.59 120.854 39.19C121.954 39.77 122.794 40.54 123.374 41.5V32.8H126.134V55H123.374V51.91C122.834 52.89 122.034 53.7 120.974 54.34C119.914 54.96 118.674 55.27 117.254 55.27C115.794 55.27 114.464 54.91 113.264 54.19C112.084 53.47 111.154 52.46 110.474 51.16C109.794 49.86 109.454 48.38 109.454 46.72ZM123.374 46.75C123.374 45.51 123.124 44.43 122.624 43.51C122.124 42.59 121.444 41.89 120.584 41.41C119.744 40.91 118.814 40.66 117.794 40.66C116.774 40.66 115.844 40.9 115.004 41.38C114.164 41.86 113.494 42.56 112.994 43.48C112.494 44.4 112.244 45.48 112.244 46.72C112.244 47.98 112.494 49.08 112.994 50.02C113.494 50.94 114.164 51.65 115.004 52.15C115.844 52.63 116.774 52.87 117.794 52.87C118.814 52.87 119.744 52.63 120.584 52.15C121.444 51.65 122.124 50.94 122.624 50.02C123.124 49.08 123.374 47.99 123.374 46.75ZM137.257 34.09C139.538 34.09 141.508 34.52 143.168 35.38C144.848 36.22 146.128 37.43 147.008 39.01C147.908 40.59 148.358 42.45 148.358 44.59C148.358 46.73 147.908 48.59 147.008 50.17C146.128 51.73 144.848 52.93 143.168 53.77C141.508 54.59 139.538 55 137.257 55H130.748V34.09H137.257ZM137.257 52.75C139.958 52.75 142.018 52.04 143.438 50.62C144.858 49.18 145.568 47.17 145.568 44.59C145.568 41.99 144.848 39.96 143.408 38.5C141.988 37.04 139.938 36.31 137.257 36.31H133.478V52.75H137.257ZM166.958 46.15C166.958 46.67 166.928 47.22 166.868 47.8H153.728C153.828 49.42 154.378 50.69 155.378 51.61C156.398 52.51 157.628 52.96 159.068 52.96C160.248 52.96 161.228 52.69 162.008 52.15C162.808 51.59 163.368 50.85 163.688 49.93H166.628C166.188 51.51 165.308 52.8 163.988 53.8C162.668 54.78 161.028 55.27 159.068 55.27C157.508 55.27 156.108 54.92 154.868 54.22C153.648 53.52 152.688 52.53 151.988 51.25C151.288 49.95 150.938 48.45 150.938 46.75C150.938 45.05 151.278 43.56 151.958 42.28C152.638 41 153.588 40.02 154.808 39.34C156.048 38.64 157.468 38.29 159.068 38.29C160.628 38.29 162.008 38.63 163.208 39.31C164.408 39.99 165.328 40.93 165.968 42.13C166.628 43.31 166.958 44.65 166.958 46.15ZM164.138 45.58C164.138 44.54 163.908 43.65 163.448 42.91C162.988 42.15 162.358 41.58 161.558 41.2C160.778 40.8 159.908 40.6 158.948 40.6C157.568 40.6 156.388 41.04 155.408 41.92C154.448 42.8 153.898 44.02 153.758 45.58H164.138ZM176.682 52.48L181.782 38.56H184.692L178.242 55H175.062L168.612 38.56H171.552L176.682 52.48Z" fill="black"/>
</svg>
